# xmcd CD database file
#
# Track frame offsets:
#	150
#	21806
#	38629
#	58547
#	78013
#	91815
#	110005
#	127607
#	151010
#	171979
#	189314
#	209894
#
# Disc length: 3157 seconds
#
# Revision: 0
# Processed by: cddbd v1.5.2PL0 Copyright (c) Steve Scherf et al.
# Submitted via: CDex 1.70beta3
#
DISCID=8c0c530c
DTITLE=Mr. Big - What If... [Bonus Track]
DYEAR=1900
DGENRE=ロック
TTITLE0=Undertow
TTITLE1=American Beauty
TTITLE2=Stranger In My Life
TTITLE3=Nobody Left To Blame
TTITLE4=Still Ain't Enough For Me
TTITLE5=Once Upon A Time
TTITLE6=As Far As I Can See
TTITLE7=All The Way Up
TTITLE8=I Won't Get In My Way
TTITLE9=Around The World
TTITLE10=Get The Feeling
TTITLE11=Kill Me With A Kiss
EXTD=
EXTT0=
EXTT1=
EXTT2=
EXTT3=
EXTT4=
EXTT5=
EXTT6=
EXTT7=
EXTT8=
EXTT9=
EXTT10=
EXTT11=
PLAYORDER=
